HIERARCHY
ROOT mixamorig:Hips
{
	OFFSET -0.000008 104.274872 1.554316
	CHANNELS 6 Xposition Yposition Zposition Xrotation Yrotation Zrotation
	JOINT mixamorig:Spine
	{
		OFFSET -0.000005 10.181595 0.131519
		CHANNELS 6 Xposition Yposition Zposition Xrotation Yrotation Zrotation
		JOINT mixamorig:Spine1
		{
			OFFSET -0.000000 9.893959 -1.470707
			CHANNELS 6 Xposition Yposition Zposition Xrotation Yrotation Zrotation
			JOINT mixamorig:Spine2
			{
				OFFSET -0.000000 9.220757 -1.370641
				CHANNELS 6 Xposition Yposition Zposition Xrotation Yrotation Zrotation
				JOINT mixamorig:Neck
				{
					OFFSET 0.000001 16.740417 -2.049036
					CHANNELS 6 Xposition Yposition Zposition Xrotation Yrotation Zrotation
					JOINT mixamorig:Head
					{
						OFFSET 0.000000 9.617874 1.685006
						CHANNELS 6 Xposition Yposition Zposition Xrotation Yrotation Zrotation
						JOINT mixamorig:HeadTop_End
						{
							OFFSET 0.000002 22.037354 7.501101
							CHANNELS 6 Xposition Yposition Zposition Xrotation Yrotation Zrotation
							End Site
							{
								OFFSET 0.000168 2310.654297 -282.823242
							}
						}
					}
				}
				JOINT mixamorig:RightShoulder
				{
					OFFSET -4.569970 11.014908 -2.160885
					CHANNELS 6 Xposition Yposition Zposition Xrotation Yrotation Zrotation
					JOINT mixamorig:RightArm
					{
						OFFSET -10.592851 -0.524811 -2.232101
						CHANNELS 6 Xposition Yposition Zposition Xrotation Yrotation Zrotation
						JOINT mixamorig:RightForeArm
						{
							OFFSET -27.841511 0.000031 -0.000004
							CHANNELS 6 Xposition Yposition Zposition Xrotation Yrotation Zrotation
							JOINT mixamorig:RightHand
							{
								OFFSET -28.328831 -0.000015 0.000015
								CHANNELS 6 Xposition Yposition Zposition Xrotation Yrotation Zrotation
								JOINT mixamorig:RightHandThumb1
								{
									OFFSET -2.464806 -1.573990 2.681852
									CHANNELS 6 Xposition Yposition Zposition Xrotation Yrotation Zrotation
									JOINT mixamorig:RightHandThumb2
									{
										OFFSET -3.215179 -1.872803 1.924282
										CHANNELS 6 Xposition Yposition Zposition Xrotation Yrotation Zrotation
										JOINT mixamorig:RightHandThumb3
										{
											OFFSET -2.654831 -1.527969 1.512609
											CHANNELS 6 Xposition Yposition Zposition Xrotation Yrotation Zrotation
											JOINT mixamorig:RightHandThumb4
											{
												OFFSET -2.018814 -1.152008 1.108052
												CHANNELS 6 Xposition Yposition Zposition Xrotation Yrotation Zrotation
												End Site
												{
													OFFSET -188.809540 -114.533607 132.431396
												}
											}
										}
									}
								}
								JOINT mixamorig:RightHandIndex1
								{
									OFFSET -9.108284 -0.517868 2.259835
									CHANNELS 6 Xposition Yposition Zposition Xrotation Yrotation Zrotation
									JOINT mixamorig:RightHandIndex2
									{
										OFFSET -3.699989 0.000000 0.001215
										CHANNELS 6 Xposition Yposition Zposition Xrotation Yrotation Zrotation
										JOINT mixamorig:RightHandIndex3
										{
											OFFSET -2.850006 0.000031 -0.000522
											CHANNELS 6 Xposition Yposition Zposition Xrotation Yrotation Zrotation
											JOINT mixamorig:RightHandIndex4
											{
												OFFSET -2.772186 -0.000015 -0.000020
												CHANNELS 6 Xposition Yposition Zposition Xrotation Yrotation Zrotation
												End Site
												{
													OFFSET -277.218445 0.000000 -0.050231
												}
											}
										}
									}
								}
								JOINT mixamorig:RightHandMiddle1
								{
									OFFSET -9.532516 -0.000031 -0.000023
									CHANNELS 6 Xposition Yposition Zposition Xrotation Yrotation Zrotation
									JOINT mixamorig:RightHandMiddle2
									{
										OFFSET -3.700005 -0.000015 0.003713
										CHANNELS 6 Xposition Yposition Zposition Xrotation Yrotation Zrotation
										JOINT mixamorig:RightHandMiddle3
										{
											OFFSET -2.949974 0.000015 -0.002054
											CHANNELS 6 Xposition Yposition Zposition Xrotation Yrotation Zrotation
											JOINT mixamorig:RightHandMiddle4
											{
												OFFSET -2.946640 0.000000 -0.000156
												CHANNELS 6 Xposition Yposition Zposition Xrotation Yrotation Zrotation
												End Site
												{
													OFFSET -294.664337 0.000000 -0.113670
												}
											}
										}
									}
								}
								JOINT mixamorig:RightHandRing1
								{
									OFFSET -9.103600 -0.043076 -1.865134
									CHANNELS 6 Xposition Yposition Zposition Xrotation Yrotation Zrotation
									JOINT mixamorig:RightHandRing2
									{
										OFFSET -3.379288 0.000000 -0.001055
										CHANNELS 6 Xposition Yposition Zposition Xrotation Yrotation Zrotation
										JOINT mixamorig:RightHandRing3
										{
											OFFSET -2.889687 -0.000015 0.000379
											CHANNELS 6 Xposition Yposition Zposition Xrotation Yrotation Zrotation
											JOINT mixamorig:RightHandRing4
											{
												OFFSET -2.638809 -0.000015 0.000941
												CHANNELS 6 Xposition Yposition Zposition Xrotation Yrotation Zrotation
												End Site
												{
													OFFSET -263.880371 0.000000 0.516020
												}
											}
										}
									}
								}
								JOINT mixamorig:RightHandPinky1
								{
									OFFSET -8.076683 -0.486710 -3.806280
									CHANNELS 6 Xposition Yposition Zposition Xrotation Yrotation Zrotation
									JOINT mixamorig:RightHandPinky2
									{
										OFFSET -3.600014 -0.000015 -0.003747
										CHANNELS 6 Xposition Yposition Zposition Xrotation Yrotation Zrotation
										JOINT mixamorig:RightHandPinky3
										{
											OFFSET -2.099983 0.000000 -0.005739
											CHANNELS 6 Xposition Yposition Zposition Xrotation Yrotation Zrotation
											JOINT mixamorig:RightHandPinky4
											{
												OFFSET -2.115768 -0.000031 -0.003680
												CHANNELS 6 Xposition Yposition Zposition Xrotation Yrotation Zrotation
												End Site
												{
													OFFSET -211.577087 0.000000 -0.350686
												}
											}
										}
									}
								}
							}
						}
					}
				}
				JOINT mixamorig:LeftShoulder
				{
					OFFSET 4.570447 11.014725 -2.160855
					CHANNELS 6 Xposition Yposition Zposition Xrotation Yrotation Zrotation
					JOINT mixamorig:LeftArm
					{
						OFFSET 10.592371 -0.524597 -2.232119
						CHANNELS 6 Xposition Yposition Zposition Xrotation Yrotation Zrotation
						JOINT mixamorig:LeftForeArm
						{
							OFFSET 27.841532 -0.000031 0.000026
							CHANNELS 6 Xposition Yposition Zposition Xrotation Yrotation Zrotation
							JOINT mixamorig:LeftHand
							{
								OFFSET 28.328846 -0.000061 0.000022
								CHANNELS 6 Xposition Yposition Zposition Xrotation Yrotation Zrotation
								JOINT mixamorig:LeftHandThumb1
								{
									OFFSET 2.466141 -1.576172 2.681732
									CHANNELS 6 Xposition Yposition Zposition Xrotation Yrotation Zrotation
									JOINT mixamorig:LeftHandThumb2
									{
										OFFSET 3.217812 -1.872070 1.916482
										CHANNELS 6 Xposition Yposition Zposition Xrotation Yrotation Zrotation
										JOINT mixamorig:LeftHandThumb3
										{
											OFFSET 2.656029 -1.528778 1.514513
											CHANNELS 6 Xposition Yposition Zposition Xrotation Yrotation Zrotation
											JOINT mixamorig:LeftHandThumb4
											{
												OFFSET 2.020889 -1.154053 1.115139
												CHANNELS 6 Xposition Yposition Zposition Xrotation Yrotation Zrotation
												End Site
												{
													OFFSET 190.885437 -115.081749 130.048782
												}
											}
										}
									}
								}
								JOINT mixamorig:LeftHandIndex1
								{
									OFFSET 9.109314 -0.518021 2.259871
									CHANNELS 6 Xposition Yposition Zposition Xrotation Yrotation Zrotation
									JOINT mixamorig:LeftHandIndex2
									{
										OFFSET 3.699989 0.000000 -0.000322
										CHANNELS 6 Xposition Yposition Zposition Xrotation Yrotation Zrotation
										JOINT mixamorig:LeftHandIndex3
										{
											OFFSET 2.850006 0.000000 0.000352
											CHANNELS 6 Xposition Yposition Zposition Xrotation Yrotation Zrotation
											JOINT mixamorig:LeftHandIndex4
											{
												OFFSET 2.774864 -0.000031 -0.000027
												CHANNELS 6 Xposition Yposition Zposition Xrotation Yrotation Zrotation
												End Site
												{
													OFFSET 277.486267 0.000000 -0.009857
												}
											}
										}
									}
								}
								JOINT mixamorig:LeftHandMiddle1
								{
									OFFSET 9.533394 0.000061 0.000044
									CHANNELS 6 Xposition Yposition Zposition Xrotation Yrotation Zrotation
									JOINT mixamorig:LeftHandMiddle2
									{
										OFFSET 3.699989 -0.000015 -0.000231
										CHANNELS 6 Xposition Yposition Zposition Xrotation Yrotation Zrotation
										JOINT mixamorig:LeftHandMiddle3
										{
											OFFSET 2.949997 -0.000015 -0.000059
											CHANNELS 6 Xposition Yposition Zposition Xrotation Yrotation Zrotation
											JOINT mixamorig:LeftHandMiddle4
											{
												OFFSET 2.952896 0.000031 0.000063
												CHANNELS 6 Xposition Yposition Zposition Xrotation Yrotation Zrotation
												End Site
												{
													OFFSET 295.289337 0.000000 0.022810
												}
											}
										}
									}
								}
								JOINT mixamorig:LeftHandRing1
								{
									OFFSET 9.104523 -0.042999 -1.865074
									CHANNELS 6 Xposition Yposition Zposition Xrotation Yrotation Zrotation
									JOINT mixamorig:LeftHandRing2
									{
										OFFSET 3.150009 -0.000031 0.000043
										CHANNELS 6 Xposition Yposition Zposition Xrotation Yrotation Zrotation
										JOINT mixamorig:LeftHandRing3
										{
											OFFSET 2.949982 -0.000015 0.000040
											CHANNELS 6 Xposition Yposition Zposition Xrotation Yrotation Zrotation
											JOINT mixamorig:LeftHandRing4
											{
												OFFSET 2.644348 0.000000 0.000057
												CHANNELS 6 Xposition Yposition Zposition Xrotation Yrotation Zrotation
												End Site
												{
													OFFSET 264.434631 0.000000 0.012105
												}
											}
										}
									}
								}
								JOINT mixamorig:LeftHandPinky1
								{
									OFFSET 8.077789 -0.486847 -3.806259
									CHANNELS 6 Xposition Yposition Zposition Xrotation Yrotation Zrotation
									JOINT mixamorig:LeftHandPinky2
									{
										OFFSET 3.599953 0.000031 0.014727
										CHANNELS 6 Xposition Yposition Zposition Xrotation Yrotation Zrotation
										JOINT mixamorig:LeftHandPinky3
										{
											OFFSET 2.100021 0.000015 0.007705
											CHANNELS 6 Xposition Yposition Zposition Xrotation Yrotation Zrotation
											JOINT mixamorig:LeftHandPinky4
											{
												OFFSET 2.125504 0.000031 0.007517
												CHANNELS 6 Xposition Yposition Zposition Xrotation Yrotation Zrotation
												End Site
												{
													OFFSET 212.550781 0.000000 0.625752
												}
											}
										}
									}
								}
							}
						}
					}
				}
			}
		}
	}
	JOINT mixamorig:RightUpLeg
	{
		OFFSET -8.207787 -6.751648 -1.599560
		CHANNELS 6 Xposition Yposition Zposition Xrotation Yrotation Zrotation
		JOINT mixamorig:RightLeg
		{
			OFFSET -0.000002 -44.370117 0.345942
			CHANNELS 6 Xposition Yposition Zposition Xrotation Yrotation Zrotation
			JOINT mixamorig:RightFoot
			{
				OFFSET 0.000003 -44.423679 -3.043532
				CHANNELS 6 Xposition Yposition Zposition Xrotation Yrotation Zrotation
				JOINT mixamorig:RightToeBase
				{
					OFFSET -0.000002 -8.728671 10.710558
					CHANNELS 6 Xposition Yposition Zposition Xrotation Yrotation Zrotation
					JOINT mixamorig:RightToe_End
					{
						OFFSET -0.000001 -0.000679 9.278119
						CHANNELS 6 Xposition Yposition Zposition Xrotation Yrotation Zrotation
						End Site
						{
							OFFSET 0.000000 -0.067690 927.812134
						}
					}
				}
			}
		}
	}
	JOINT mixamorig:LeftUpLeg
	{
		OFFSET 8.207793 -6.751686 -1.599556
		CHANNELS 6 Xposition Yposition Zposition Xrotation Yrotation Zrotation
		JOINT mixamorig:LeftLeg
		{
			OFFSET -0.000004 -44.370014 0.346954
			CHANNELS 6 Xposition Yposition Zposition Xrotation Yrotation Zrotation
			JOINT mixamorig:LeftFoot
			{
				OFFSET -0.000001 -44.423672 -3.044401
				CHANNELS 6 Xposition Yposition Zposition Xrotation Yrotation Zrotation
				JOINT mixamorig:LeftToeBase
				{
					OFFSET -0.000002 -8.728669 10.710558
					CHANNELS 6 Xposition Yposition Zposition Xrotation Yrotation Zrotation
					JOINT mixamorig:LeftToe_End
					{
						OFFSET -0.000003 -0.000679 9.278133
						CHANNELS 6 Xposition Yposition Zposition Xrotation Yrotation Zrotation
						End Site
						{
							OFFSET 0.000000 -0.068021 927.813477
						}
					}
				}
			}
		}
	}
}
MOTION
Frames: 3
Frame Time: 0.033333
0.000006 104.270477 1.554256 0.000010 0.000003 -0.000113 -0.000005 10.181587 0.131522 0.000001 -0.000003 0.000084 -0.000000 9.893967 -1.470711 0.000001 0.000000 -0.000000 -0.000000 9.220802 -1.370642 0.000000 -0.000000 -0.000000 0.000001 16.740433 -2.049030 0.000000 -0.000000 -0.000000 0.000000 9.617859 1.685014 0.000000 0.000000 0.000000 0.000002 22.037384 7.501101 0.000000 -0.000000 0.000000 -4.569968 11.014880 -2.160881 0.000008 0.000001 -0.000038 -10.592767 -0.524846 -2.231732 74.693282 70.353243 -56.545398 -27.841465 0.000009 0.000603 227.020899 66.158394 -247.475020 -28.328829 0.000006 0.000024 -0.000318 -0.000045 0.000007 -2.464562 -1.574215 2.682104 -87.565177 -45.724346 -37.306411 -3.214878 -1.873042 1.924582 244.475092 -45.871861 301.620416 -2.654560 -1.528250 1.513003 229.685820 -42.102847 290.719188 -2.018811 -1.152014 1.108057 -0.000003 0.000000 0.000002 -9.108232 -0.517733 2.260451 208.184207 15.115984 -304.234357 -3.699907 0.000144 0.001809 205.286349 14.918368 -299.478305 -2.849971 0.000181 0.000072 205.336551 11.133908 -313.116307 -2.772164 -0.000003 -0.000012 -0.000003 -0.000002 -0.000003 -9.532455 0.000075 0.000576 204.718186 11.442785 -310.635173 -3.699945 0.000156 0.004310 203.019068 10.799400 -310.362976 -2.949922 0.000140 -0.001479 201.292532 9.585467 48.062392 -2.946642 0.000014 -0.000151 0.000001 -0.000001 -0.000002 -9.103563 -0.042908 -1.864529 203.673181 9.709840 -315.960016 -3.379238 0.000133 -0.000476 203.302356 6.118323 29.109996 -2.889687 0.000112 0.000966 204.228885 -353.993624 387.602963 -2.638803 -0.000029 0.000948 -0.000002 0.000000 0.000001 -8.076633 -0.486599 -3.805691 204.191046 9.814342 -316.617872 -3.599973 -0.000003 -0.003176 23.659678 -181.216448 184.370971 -2.100002 0.000010 -0.005178 202.164228 0.432146 1.191017 -2.115769 -0.000029 -0.003683 0.000001 -0.000002 -0.000003 4.570446 11.014691 -2.160851 -0.000018 0.000010 -0.000021 10.592513 -0.524520 -2.232405 69.320867 -57.773244 41.760743 27.841837 -0.000018 -0.000135 179.713123 -69.866435 179.589401 28.328829 -0.000028 0.000018 0.000024 -0.000090 0.000001 2.466181 -1.576129 2.681898 80.241506 145.331946 -138.726183 3.217798 -1.872031 1.916527 -139.066408 47.002305 78.708948 2.655889 -1.528843 1.514632 -191.124812 43.264252 138.141464 2.020899 -1.154083 1.115144 0.000001 0.000001 0.000002 9.109407 -0.517983 2.259915 -188.768438 -12.194488 -251.442541 3.700126 0.000150 -0.000288 -11.981360 -170.138209 -101.005152 2.850108 0.000274 0.000373 -195.654539 -6.882406 -312.757559 2.774879 -0.000047 -0.000027 0.000001 0.000002 0.000003 9.533463 0.000037 0.000109 -186.570934 -11.236793 -240.615871 3.700116 0.000095 -0.000173 -187.520248 -8.296563 -264.395147 2.950133 0.000149 -0.000022 -188.384513 -6.927795 -280.864264 2.952875 -0.000020 0.000065 0.000003 -0.000002 -0.000001 9.104602 -0.042999 -1.865015 -184.993010 -9.501792 -235.341517 3.149966 0.000006 0.000117 -543.635957 -6.644291 -237.308174 2.949855 -0.000055 0.000119 -182.619041 -5.529724 -230.622813 2.644317 0.000027 0.000053 0.000002 0.000003 -0.000000 8.077746 -0.486892 -3.806183 -182.973801 -10.404789 -205.892692 3.599833 -0.000039 0.014799 -361.605706 185.922216 -381.153680 2.099890 -0.000033 0.007777 -181.151261 -2.268247 -211.194708 2.125502 -0.000016 0.007507 -0.000002 -0.000003 0.000001 -8.207786 -6.751667 -1.599560 -0.077001 -0.000003 0.000080 -0.000002 -44.370110 0.345938 0.153719 -0.000000 -0.000000 0.000000 -44.423679 -3.043532 -0.076700 0.000000 -0.000002 -0.000006 -8.728667 10.710559 -0.000009 -0.000000 -0.000000 -0.000001 -0.000679 9.278123 0.000000 -0.000000 -0.000000 8.207792 -6.751710 -1.599556 -0.074518 -0.000003 0.000081 -0.000002 -44.370014 0.346960 0.148822 0.000002 0.000000 -0.000001 -44.423664 -3.044403 -0.074314 0.000000 -0.000002 -0.000004 -8.728671 10.710558 0.000007 -0.000000 -0.000000 0.000000 -0.000680 9.278137 -0.000000 0.000000 -0.000001 
0.000006 104.270477 1.554256 0.000010 0.000003 -0.000113 -0.000005 10.181587 0.131522 0.000001 -0.000003 0.000084 -0.000000 9.893967 -1.470711 0.000001 0.000000 -0.000000 -0.000000 9.220802 -1.370642 0.000000 -0.000000 -0.000000 0.000001 16.740433 -2.049030 0.000000 -0.000000 -0.000000 0.000000 9.617859 1.685014 0.000000 0.000000 0.000000 0.000002 22.037384 7.501101 0.000000 -0.000000 0.000000 -4.569968 11.014880 -2.160881 0.000008 0.000001 -0.000038 -10.592763 -0.524841 -2.231730 76.806140 70.221189 -58.263802 -27.841434 0.000032 0.000625 220.284406 61.013636 -243.804968 -28.328829 0.000006 0.000004 -0.000316 -0.000044 0.000007 -2.464514 -1.574213 2.682103 -90.312866 -53.584668 -41.649312 -3.214859 -1.873013 1.924608 228.583755 -51.067159 285.549391 -2.654543 -1.528204 1.513056 206.573826 -43.301890 268.281552 -2.018835 -1.151982 1.108064 -0.000002 0.000000 0.000005 -9.108221 -0.517736 2.260444 205.277552 15.134796 -298.666004 -3.699903 0.000160 0.001826 204.750343 17.320118 -290.476279 -2.849928 0.000162 0.000076 205.165072 14.674414 -300.041468 -2.772165 -0.000015 -0.000018 -0.000002 0.000005 0.000004 -9.532454 0.000075 0.000582 205.701378 11.667206 -311.531786 -3.699913 0.000140 0.004309 203.123624 13.422616 -300.298310 -2.949910 0.000123 -0.001463 201.838237 11.670125 55.813171 -2.946630 0.000013 -0.000159 0.000000 -0.000002 -0.000004 -9.103568 -0.042925 -1.864541 204.362361 9.446085 -318.197914 -3.379214 0.000130 -0.000461 197.640389 5.897969 36.788898 -2.889656 0.000183 0.000963 197.217177 -354.225140 397.011931 -2.638803 0.000015 0.000935 -0.000004 0.000003 0.000000 -8.076648 -0.486589 -3.805696 202.234771 7.518636 -323.387000 -3.599995 -0.000053 -0.003190 21.398476 -177.702398 166.041065 -2.099988 -0.000021 -0.005181 199.310138 -1.914875 -12.520005 -2.115762 -0.000051 -0.003680 -0.000002 -0.000001 -0.000005 4.570446 11.014691 -2.160851 -0.000018 0.000010 -0.000021 10.592522 -0.524525 -2.232402 70.403671 -58.729511 43.300397 27.841845 -0.000005 -0.000112 184.875558 -68.137236 187.204625 28.328831 -0.000042 0.000019 0.000022 -0.000089 0.000000 2.466176 -1.576137 2.681881 82.052265 143.173674 -138.999568 3.217760 -1.872023 1.916528 -146.662658 54.158803 90.703929 2.655914 -1.528830 1.514620 -179.476621 48.782239 125.682652 2.020891 -1.154057 1.115143 0.000001 0.000005 0.000002 9.109404 -0.517997 2.259925 -187.198533 -11.825997 -242.657223 3.700088 0.000039 -0.000286 -13.632977 -162.693754 -76.194496 2.850137 0.000161 0.000373 -198.840809 -15.202761 -282.384554 2.774879 -0.000033 -0.000032 0.000000 0.000000 -0.000003 9.533504 0.000099 0.000103 -187.006263 -8.660538 -258.011188 3.700081 0.000020 -0.000172 -189.233355 -13.538004 -248.479222 2.950109 0.000045 -0.000007 -189.654027 -12.383650 -255.768154 2.952874 -0.000030 0.000062 0.000002 0.000001 -0.000000 9.104620 -0.042981 -1.865022 -185.764507 -8.651011 -247.274431 3.150014 0.000005 0.000104 -545.514860 -8.495621 -245.899077 2.949951 -0.000035 0.000116 -185.685127 -7.247937 -256.164797 2.644327 0.000037 0.000057 -0.000004 -0.000001 -0.000001 8.077858 -0.486852 -3.806195 -185.131089 -8.885006 -232.934094 3.600098 0.000211 0.014777 -364.791716 182.204968 -478.013084 2.099998 0.000438 0.007753 -183.411807 0.556833 -365.777694 2.125500 0.000001 0.007517 -0.000003 0.000006 0.000001 -8.207786 -6.751667 -1.599560 -0.077001 -0.000003 0.000080 -0.000002 -44.370110 0.345938 0.153719 -0.000000 -0.000000 0.000000 -44.423679 -3.043532 -0.076700 0.000000 -0.000002 -0.000006 -8.728667 10.710559 -0.000009 -0.000000 -0.000000 -0.000001 -0.000679 9.278123 0.000000 -0.000000 -0.000000 8.207792 -6.751710 -1.599556 -0.074518 -0.000003 0.000081 -0.000002 -44.370014 0.346960 0.148822 0.000002 0.000000 -0.000001 -44.423664 -3.044403 -0.074314 0.000000 -0.000002 -0.000004 -8.728671 10.710558 0.000007 -0.000000 -0.000000 0.000000 -0.000680 9.278137 -0.000000 0.000000 -0.000001 
0.000006 104.270477 1.554256 0.000010 0.000003 -0.000113 -0.000005 10.181587 0.131522 0.000001 -0.000003 0.000084 -0.000000 9.893967 -1.470711 0.000001 0.000000 -0.000000 -0.000000 9.220802 -1.370642 0.000000 -0.000000 -0.000000 0.000001 16.740433 -2.049030 0.000000 -0.000000 -0.000000 0.000000 9.617859 1.685014 0.000000 0.000000 0.000000 0.000002 22.037384 7.501101 0.000000 -0.000000 0.000000 -4.569968 11.014880 -2.160881 0.000008 0.000001 -0.000038 -10.592773 -0.524846 -2.231745 77.017288 66.530291 -55.126710 -27.841400 0.000042 0.000626 209.980711 58.769864 -230.862662 -28.328836 0.000022 0.000026 -0.000326 -0.000043 0.000007 -2.464472 -1.574188 2.682143 -109.429896 -59.710689 -58.820592 -3.214816 -1.872983 1.924653 215.459984 -51.949015 272.807482 -2.654505 -1.528169 1.513097 197.087731 -42.887577 258.288904 -2.018826 -1.152014 1.108052 -0.000004 -0.000006 0.000002 -9.108203 -0.517733 2.260440 204.389436 17.331585 -289.586033 -3.699856 0.000171 0.001838 196.910433 18.970786 -263.303109 -2.849840 0.000207 0.000080 193.220792 15.990673 -259.049268 -2.772177 -0.000015 -0.000019 -0.000001 0.000002 -0.000001 -9.532428 0.000099 0.000581 203.633498 13.003330 -302.667211 -3.699829 0.000199 0.004314 197.201017 15.539153 -275.908142 -2.949860 0.000144 -0.001460 195.309628 13.686809 83.523317 -2.946650 -0.000010 -0.000147 -0.000001 -0.000000 -0.000002 -9.103541 -0.042937 -1.864543 202.680919 10.456875 -311.024412 -3.379208 0.000196 -0.000465 195.346566 7.057147 49.233960 -2.889633 0.000200 0.000966 194.736958 -353.280607 408.972111 -2.638808 -0.000037 0.000942 0.000001 0.000001 0.000006 -8.076633 -0.486580 -3.805702 200.942321 8.153207 -318.169609 -3.599981 0.000011 -0.003178 16.993273 -179.534500 174.692921 -2.100008 0.000014 -0.005181 195.056310 -0.104616 -2.343872 -2.115749 -0.000037 -0.003685 -0.000001 -0.000002 -0.000002 4.570446 11.014691 -2.160851 -0.000018 0.000010 -0.000021 10.592516 -0.524505 -2.232399 72.416329 -57.801992 44.013507 27.841805 -0.000071 -0.000099 196.837405 -63.973567 206.663329 28.328833 -0.000043 0.000014 0.000019 -0.000089 -0.000000 2.466112 -1.576211 2.681854 85.329745 117.855010 -131.937002 3.217680 -1.872063 1.916529 -172.109552 61.308434 122.805982 2.655906 -1.528843 1.514599 -181.311347 54.079317 131.298325 2.020899 -1.154034 1.115164 0.000003 0.000002 0.000002 9.109394 -0.518024 2.259917 -183.127644 -5.316841 -241.163324 3.700111 0.000049 -0.000269 -9.099129 -169.190848 -79.972008 2.850133 0.000183 0.000389 -195.818081 -11.787694 -286.777677 2.774891 -0.000015 -0.000025 -0.000002 -0.000003 -0.000002 9.533526 0.000196 0.000098 -183.554599 -2.579746 -288.328567 3.700111 0.000070 -0.000183 -188.747360 -9.995397 -262.374641 2.950148 0.000124 -0.000027 -192.456084 -11.363411 -275.267279 2.952860 -0.000017 0.000064 -0.000001 0.000003 -0.000001 9.104671 -0.042903 -1.865020 -182.306574 -2.179988 -273.153472 3.150072 0.000123 0.000096 -545.724520 -4.371729 -285.247988 2.949982 -0.000021 0.000090 -186.577641 -7.538560 -262.167577 2.644333 0.000033 0.000055 -0.000001 -0.000002 -0.000000 8.077895 -0.486573 -3.806212 -185.740137 -1.177032 -325.313878 3.599725 0.000430 0.014769 -366.047296 176.496337 -597.398999 2.099912 0.000452 0.007739 -187.413602 1.841557 -383.142357 2.125505 -0.000000 0.007516 -0.000001 0.000002 -0.000001 -8.207786 -6.751667 -1.599560 -0.077001 -0.000003 0.000080 -0.000002 -44.370110 0.345938 0.153719 -0.000000 -0.000000 0.000000 -44.423679 -3.043532 -0.076700 0.000000 -0.000002 -0.000006 -8.728667 10.710559 -0.000009 -0.000000 -0.000000 -0.000001 -0.000679 9.278123 0.000000 -0.000000 -0.000000 8.207792 -6.751710 -1.599556 -0.074518 -0.000003 0.000081 -0.000002 -44.370014 0.346960 0.148822 0.000002 0.000000 -0.000001 -44.423664 -3.044403 -0.074314 0.000000 -0.000002 -0.000004 -8.728671 10.710558 0.000007 -0.000000 -0.000000 0.000000 -0.000680 9.278137 -0.000000 0.000000 -0.000001 
